# 3ds Max Wavefront OBJ Exporter v0.97b - (c)2007 guruware
# File Created: 04.02.2018 16:47:43

#
# object Group39120
#

v  0.4018 0.4533 -0.0270
v  -0.3086 0.2020 0.4026
v  0.3752 0.3597 0.2583
v  0.7569 0.1239 0.3926
v  1.3572 0.0133 -0.0368
v  0.6009 0.2129 -0.1143
v  -1.2096 -0.0203 0.2797
v  -1.1463 0.0701 -0.1057
v  -1.5891 -0.1453 0.1654
v  -0.6182 0.1948 -0.1604
v  -0.5306 -0.2095 -0.3366
v  -1.2382 -0.1742 -0.3067
v  -1.4467 -0.3012 0.3321
v  -1.2216 -0.4134 0.0143
v  0.1096 -0.4756 0.2935
v  -0.1031 -0.4452 0.0321
v  0.5974 -0.4040 -0.3570
v  -0.2569 -0.3508 -0.2864
v  -0.0914 -0.1516 0.5176
v  1.0996 -0.2660 0.4223
v  1.4327 -0.1541 0.2657
v  1.0715 -0.1335 -0.2734
v  1.3497 -0.2685 -0.0359
v  0.3524 -0.0194 -0.3549
v  0.9694 0.0850 -0.2398
v  0.1951 -0.2979 -0.4892
v  0.0122 0.1288 0.4706
v  -0.7668 -0.1843 0.4204
v  -0.0967 -0.2983 0.4882
v  -0.3251 0.4024 -0.1323
v  0.0557 0.4027 -0.2583
v  -1.5640 -0.1630 -0.0723
v  -1.1522 -0.3065 -0.2848
v  -1.6309 -0.3050 0.0069
v  -0.6695 0.0159 0.3167
v  1.0368 -0.4070 -0.0028
v  1.1347 -0.3843 0.2628
# 37 vertices

vn -0.1552 0.9428 0.2949
vn 0.2450 0.9649 0.0941
vn -0.3517 0.9226 0.1586
vn -0.0190 0.3961 -0.9180
vn -0.1008 -0.9584 0.2670
vn -0.0040 -0.9937 -0.1123
vn -0.0230 -0.9615 -0.2738
vn -0.0291 -0.9985 0.0455
vn -0.0268 -0.9952 -0.0938
vn 0.1015 -0.9921 0.0733
vn 0.4472 0.0000 0.8944
vn 0.0938 0.1571 0.9831
vn 0.4120 0.8369 0.3604
vn 0.4153 -0.4913 -0.7656
vn 0.1065 0.3824 -0.9178
vn -0.3941 0.4789 0.7844
vn -0.1545 0.2185 0.9635
vn -0.1143 -0.0829 0.9900
vn -0.0711 -0.7738 0.6294
vn -0.1160 0.9289 0.3517
vn 0.1844 0.3405 -0.9220
vn -0.4208 0.6655 -0.6165
vn -0.0470 -0.9371 -0.3458
vn -0.2310 -0.8980 -0.3745
vn -0.2556 -0.9541 0.1559
vn 0.3911 0.5827 -0.7124
vn 0.7444 0.6580 -0.1134
vn -0.0862 0.9358 0.3417
vn -0.1762 0.3221 0.9302
vn -0.1494 0.2216 0.9636
vn -0.4931 0.8095 0.3186
vn 0.2660 -0.1730 -0.9483
vn -0.0806 -0.9656 -0.2472
vn -0.0919 -0.8941 -0.4383
vn -0.1649 0.2789 -0.9461
vn 0.0508 -0.9961 -0.0715
vn 0.0579 -0.7068 0.7051
vn -0.2383 0.3443 -0.9081
vn -0.5768 0.7833 0.2318
vn 0.0886 -0.7907 0.6057
vn 0.9663 -0.0266 -0.2560
vn -0.2731 0.4970 -0.8237
vn -0.0484 0.9884 -0.1436
vn 0.6052 -0.7852 0.1313
vn 0.3306 -0.8465 -0.4173
vn -0.2311 0.6685 -0.7069
vn -0.2069 0.9595 0.1911
vn 0.6438 -0.0196 -0.7650
vn 0.2681 0.9468 -0.1781
vn -0.5794 -0.1712 -0.7969
vn -0.8400 -0.2552 0.4788
vn 0.4918 -0.6442 0.5858
vn 0.3057 0.3363 0.8908
vn -0.0198 -0.3689 -0.9293
vn -0.2286 -0.6877 -0.6891
vn 0.1041 0.1268 0.9865
vn 0.4145 0.8525 0.3184
vn 0.0593 -0.1983 0.9783
vn -0.1309 -0.1904 0.9730
vn 0.1905 0.2355 -0.9530
vn 0.4845 0.3497 -0.8019
vn -0.0923 0.4930 0.8651
vn -0.4576 0.5742 0.6789
vn 0.0097 0.7143 -0.6998
vn 0.3706 0.4467 -0.8143
vn -0.4701 -0.4329 -0.7692
vn -0.0511 -0.1954 -0.9794
vn 0.3979 -0.9149 -0.0682
vn 0.0902 -0.9946 0.0521
vn -0.9224 0.3655 -0.1246
vn -0.4911 0.8633 -0.1162
vn 0.0875 0.5964 0.7979
vn -0.0012 0.6780 0.7351
# 73 vertex normals

vt 0.9833 0.1069 0.9624
vt 0.9571 0.1106 1.0124
vt 0.9750 0.0990 1.2162
vt 0.9760 0.0773 1.0629
vt 0.9849 0.0703 0.5367
vt 0.9851 0.0876 0.7719
vt 0.9481 0.0662 0.7798
vt 0.9321 0.0745 0.7377
vt 0.9428 0.0574 0.6899
vt 0.9247 0.0893 0.8343
vt 0.9192 0.0508 0.4919
vt 0.9266 0.0557 0.5680
vt 0.9482 0.0486 0.7056
vt 0.9375 0.0377 0.5999
vt 0.9689 0.0292 0.8594
vt 0.9157 0.0167 0.4322
vt 0.9847 0.0184 0.4103
vt 0.9160 0.0390 0.4321
vt 0.9171 0.0299 0.4322
vt 0.9020 0.0368 0.4103
vt 0.9162 0.0239 0.4322
vt 0.9647 0.0563 0.8601
vt 0.9726 0.0534 0.9625
vt 0.9784 0.0600 1.0300
vt 0.8988 0.0580 0.4522
vt 0.8901 0.0489 0.3814
vt 0.9075 0.0663 0.5493
vt 0.8987 0.0743 0.6060
vt 0.9104 0.0491 0.4508
vt 0.9660 0.0781 0.9923
vt 0.9558 0.0533 0.7743
vt 0.9646 0.0460 0.8319
vt 0.8946 0.1063 0.9624
vt 0.9201 0.1037 0.9773
vt 0.9108 0.0977 0.8991
vt 0.9350 0.0561 0.6265
vt 0.9265 0.0470 0.5347
vt 0.9376 0.0479 0.6196
vt 0.8946 0.0927 0.7719
vt 0.9483 0.0824 0.8539
vt 0.9845 0.0378 0.3493
vt 0.9771 0.0448 0.9922
vt 0.9849 0.0506 0.3814
vt 0.8902 0.0357 0.3493
vt 0.8901 0.0686 0.5367
# 45 texture coords

g Group39120
f 1/1/1 2/2/1 3/3/1 
f 4/4/2 5/5/2 6/6/2 
f 7/7/3 8/8/3 9/9/3 
f 10/10/4 11/11/4 12/12/4 
f 13/13/5 14/14/5 15/15/5 
f 15/15/6 16/16/6 17/17/6 
f 14/14/7 18/18/7 16/19/7 
f 14/14/8 16/19/8 16/16/8 
f 14/14/9 16/16/9 15/15/9 
f 17/20/10 16/16/10 16/21/10 
f 17/20/11 16/21/11 16/19/11 
f 4/4/12 19/22/12 20/23/12 
f 4/4/13 21/24/13 5/5/13 
f 22/25/14 23/26/14 17/20/14 
f 24/27/15 25/28/15 26/29/15 
f 9/9/16 13/13/16 7/7/16 
f 2/2/17 19/22/17 27/30/17 
f 28/31/18 13/13/18 29/32/18 
f 13/13/19 15/15/19 29/32/19 
f 1/33/20 30/34/20 2/2/20 
f 24/27/21 26/29/21 31/35/21 
f 12/12/22 32/36/22 8/8/22 
f 33/37/23 18/18/23 14/14/23 
f 33/37/24 14/14/24 34/38/24 
f 34/38/25 14/14/25 13/13/25 
f 1/33/26 6/39/26 31/35/26 
f 1/1/27 4/4/27 6/6/27 
f 10/10/28 7/7/28 35/40/28 
f 7/7/29 13/13/29 28/31/29 
f 2/2/30 28/31/30 19/22/30 
f 30/34/31 35/40/31 2/2/31 
f 22/25/32 17/20/32 26/29/32 
f 18/18/33 17/20/33 16/19/33 
f 26/29/34 17/20/34 18/18/34 
f 31/35/35 26/29/35 11/11/35 
f 36/41/36 15/15/36 17/17/36 
f 20/23/37 29/32/37 15/15/37 
f 31/35/38 11/11/38 10/10/38 
f 30/34/39 10/10/39 35/40/39 
f 20/23/40 15/15/40 37/42/40 
f 5/5/41 21/24/41 23/43/41 
f 30/34/42 31/35/42 10/10/42 
f 31/35/43 30/34/43 1/33/43 
f 21/24/44 37/42/44 23/43/44 
f 23/26/45 36/44/45 17/20/45 
f 10/10/46 12/12/46 8/8/46 
f 10/10/47 8/8/47 7/7/47 
f 23/26/48 22/25/48 5/45/48 
f 6/39/49 5/45/49 25/28/49 
f 12/12/50 34/38/50 32/36/50 
f 9/9/51 34/38/51 13/13/51 
f 20/23/52 37/42/52 21/24/52 
f 4/4/53 20/23/53 21/24/53 
f 11/11/54 18/18/54 33/37/54 
f 26/29/55 18/18/55 11/11/55 
f 27/30/56 19/22/56 4/4/56 
f 3/3/57 4/4/57 1/1/57 
f 19/22/58 29/32/58 20/23/58 
f 19/22/59 28/31/59 29/32/59 
f 25/28/60 22/25/60 26/29/60 
f 5/45/61 22/25/61 25/28/61 
f 35/40/62 7/7/62 28/31/62 
f 35/40/63 28/31/63 2/2/63 
f 6/39/64 25/28/64 24/27/64 
f 6/39/65 24/27/65 31/35/65 
f 12/12/66 33/37/66 34/38/66 
f 12/12/67 11/11/67 33/37/67 
f 37/42/68 36/41/68 23/43/68 
f 37/42/69 15/15/69 36/41/69 
f 32/36/70 34/38/70 9/9/70 
f 8/8/71 32/36/71 9/9/71 
f 3/3/72 27/30/72 4/4/72 
f 2/2/73 27/30/73 3/3/73 
# 0 polygons - 73 triangles

