# 3ds Max Wavefront OBJ Exporter v0.97b - (c)2007 guruware
# File Created: 15.05.2018 12:49:18

#
# object Cylinder001
#

v  0.3178 0.0000 -0.0375
v  0.2247 0.2247 -0.0375
v  0.2247 0.2247 0.0372
v  0.3178 -0.0000 0.0372
v  -0.0000 0.3178 -0.0375
v  -0.0000 0.3178 0.0372
v  -0.2247 0.2247 -0.0375
v  -0.2247 0.2247 0.0372
v  -0.3178 -0.0000 -0.0375
v  -0.3178 -0.0000 0.0372
v  -0.2247 -0.2247 -0.0375
v  -0.2247 -0.2247 0.0372
v  0.0000 -0.3178 -0.0375
v  0.0000 -0.3178 0.0372
v  0.2247 -0.2247 -0.0375
v  0.2247 -0.2247 0.0372
# 16 vertices

vn 1.0000 -0.0000 -0.0000
vn 0.7071 0.7071 0.0000
vn -0.0000 1.0000 0.0000
vn -0.7071 0.7071 0.0000
vn -1.0000 -0.0000 -0.0000
vn -0.7071 -0.7071 -0.0000
vn -0.0000 -1.0000 -0.0000
vn 0.7071 -0.7071 -0.0000
vn 0.0000 0.0000 -1.0000
vn 0.0000 -0.0000 1.0000
# 10 vertex normals

vt 0.0302 0.1137 1.0000
vt 0.0302 0.0779 1.0000
vt 0.7880 0.0779 1.0000
vt 0.7880 0.1137 1.0000
vt 0.0302 0.0421 1.0000
vt 0.7880 0.0421 1.0000
vt 0.8046 0.2141 1.0000
vt 0.8464 0.2141 1.0000
vt 0.8464 0.9693 1.0000
vt 0.8046 0.9693 1.0000
vt 0.8883 0.2141 1.0000
vt 0.8883 0.9693 1.0000
vt 0.9301 0.2141 1.0000
vt 0.9301 0.9693 1.0000
vt 0.9719 0.2141 1.0000
vt 0.9719 0.9693 1.0000
vt 0.0302 0.1853 1.0000
vt 0.0302 0.1495 1.0000
vt 0.7880 0.1495 1.0000
vt 0.7880 0.1853 1.0000
vt 0.7797 0.6005 -0.2500
vt 0.6691 0.3333 -0.2500
vt 0.4019 0.2226 -0.2500
vt 0.4019 0.9784 -0.2500
vt 0.1347 0.3333 -0.2500
vt 0.0240 0.6005 -0.2500
vt 0.1347 0.8677 -0.2500
vt 0.6691 0.8677 -0.2500
vt 0.1347 0.8677 0.2500
vt 0.0240 0.6005 0.2500
vt 0.1347 0.3333 0.2500
vt 0.6691 0.8677 0.2500
vt 0.4019 0.2226 0.2500
vt 0.6691 0.3333 0.2500
vt 0.7797 0.6005 0.2500
vt 0.4019 0.9784 0.2500
# 36 texture coords

g Cylinder001
f 1/1/1 2/2/2 3/3/2 4/4/1 
f 2/2/2 5/5/3 6/6/3 3/3/2 
f 5/7/3 7/8/4 8/9/4 6/10/3 
f 7/8/4 9/11/5 10/12/5 8/9/4 
f 9/11/5 11/13/6 12/14/6 10/12/5 
f 11/13/6 13/15/7 14/16/7 12/14/6 
f 13/17/7 15/18/8 16/19/8 14/20/7 
f 15/18/8 1/1/1 4/4/1 16/19/8 
f 13/21/9 11/22/9 9/23/9 1/24/9 
f 9/23/9 7/25/9 5/26/9 1/24/9 
f 5/26/9 2/27/9 1/24/9 
f 15/28/9 13/21/9 1/24/9 
f 3/29/10 6/30/10 8/31/10 16/32/10 
f 8/31/10 10/33/10 12/34/10 16/32/10 
f 12/34/10 14/35/10 16/32/10 
f 4/36/10 3/29/10 16/32/10 
# 12 polygons - 4 triangles

