# 3ds Max Wavefront OBJ Exporter v0.97b - (c)2007 guruware
# File Created: 25.05.2018 11:53:12

#
# object Cylinder001
#

v  -0.0003 0.4129 -0.0015
v  0.2178 0.2781 -0.0015
v  0.0671 0.2781 -0.2090
v  -0.1768 0.2781 -0.1297
v  -0.1768 0.2781 0.1267
v  0.0671 0.2781 0.2060
v  0.2190 0.0018 0.1577
v  0.2190 0.0018 -0.1607
v  -0.0839 0.0018 -0.2591
v  -0.2711 0.0018 -0.0015
v  -0.0839 0.0018 0.2562
v  0.5927 0.0000 -0.0000
v  0.4795 0.0000 -0.3484
v  0.4795 0.0077 -0.3484
v  0.5927 0.0077 -0.0000
v  0.1832 0.0000 -0.5637
v  0.1832 0.0077 -0.5637
v  -0.1832 0.0000 -0.5637
v  -0.1832 0.0077 -0.5637
v  -0.4795 0.0000 -0.3484
v  -0.4795 0.0077 -0.3484
v  -0.5927 0.0000 0.0000
v  -0.5927 0.0077 0.0000
v  -0.4795 0.0000 0.3484
v  -0.4795 0.0077 0.3484
v  -0.1832 0.0000 0.5637
v  -0.1832 0.0077 0.5637
v  0.1832 0.0000 0.5637
v  0.1832 0.0077 0.5637
v  0.4795 0.0000 0.3484
v  0.4795 0.0077 0.3484
# 31 vertices

vn 0.0000 1.0000 -0.0000
vn 0.8466 0.5322 -0.0000
vn 0.2616 0.5321 -0.8053
vn -0.6851 0.5319 -0.4977
vn -0.6851 0.5319 0.4977
vn 0.2616 0.5321 0.8053
vn 0.8041 0.1107 0.5841
vn 0.8041 0.1107 -0.5841
vn -0.3070 0.1103 -0.9453
vn -0.9939 0.1100 0.0000
vn -0.3070 0.1103 0.9453
vn 0.7653 -0.6437 -0.0000
vn 0.6191 -0.6437 -0.4498
vn 0.6191 0.6437 -0.4498
vn 0.7653 0.6437 -0.0000
vn 0.2365 -0.6437 -0.7278
vn 0.2365 0.6437 -0.7278
vn -0.2365 -0.6437 -0.7278
vn -0.2365 0.6437 -0.7278
vn -0.6191 -0.6437 -0.4498
vn -0.6191 0.6437 -0.4498
vn -0.7653 -0.6437 0.0000
vn -0.7653 0.6437 0.0000
vn -0.6191 -0.6437 0.4498
vn -0.6191 0.6437 0.4498
vn -0.2365 -0.6437 0.7278
vn -0.2365 0.6437 0.7278
vn 0.2365 -0.6437 0.7278
vn 0.2365 0.6437 0.7278
vn 0.6191 -0.6437 0.4498
vn 0.6191 0.6437 0.4498
# 31 vertex normals

vt 0.6969 0.9695 12.1154
vt 0.6139 0.6768 12.1154
vt 0.7800 0.6768 12.1154
vt 0.8630 0.9695 12.1154
vt 0.9461 0.6768 12.1154
vt 0.1986 0.9695 12.1154
vt 0.1156 0.6768 12.1154
vt 0.2817 0.6768 12.1154
vt 0.3647 0.9695 12.1154
vt 0.4478 0.6768 12.1154
vt 0.5308 0.9695 12.1154
vt 0.5308 0.4317 12.1154
vt 0.6969 0.4317 12.1154
vt 0.8630 0.4317 12.1154
vt 0.0325 0.4317 12.1154
vt 0.1986 0.4317 12.1154
vt 0.3647 0.4317 12.1154
vt 0.6992 0.0020 0.0000
vt 0.7988 0.0020 0.0000
vt 0.7988 0.0198 0.0000
vt 0.6992 0.0198 0.0000
vt 0.8984 0.0020 0.0000
vt 0.8984 0.0198 0.0000
vt 0.9980 0.0020 0.0000
vt 0.9980 0.0198 0.0000
vt 0.0020 0.0020 0.0000
vt 0.1016 0.0020 0.0000
vt 0.1016 0.0198 0.0000
vt 0.0020 0.0198 0.0000
vt 0.2012 0.0020 0.0000
vt 0.2012 0.0198 0.0000
vt 0.3008 0.0020 0.0000
vt 0.3008 0.0198 0.0000
vt 0.4004 0.0020 -0.0000
vt 0.4004 0.0198 -0.0000
vt 0.5000 0.0020 0.0000
vt 0.5000 0.0198 0.0000
vt 0.5996 0.0020 0.0000
vt 0.5996 0.0198 0.0000
vt 0.3991 0.2642 -0.2500
vt 0.3991 0.1576 -0.2500
vt 0.3364 0.0714 -0.2500
vt 0.2350 0.3834 -0.2500
vt 0.1337 0.0714 -0.2500
vt 0.2350 0.0384 -0.2500
vt 0.0710 0.2642 -0.2500
vt 0.0710 0.1576 -0.2500
vt 0.1337 0.3505 -0.2500
vt 0.3364 0.3505 -0.2500
vt 0.5971 0.3505 0.2500
vt 0.5345 0.2642 0.2500
vt 0.5345 0.1576 0.2500
vt 0.7999 0.3505 0.2500
vt 0.6985 0.0384 0.2500
vt 0.5971 0.0714 0.2500
vt 0.8626 0.1576 0.2500
vt 0.7999 0.0714 0.2500
vt 0.8626 0.2642 0.2500
vt 0.6985 0.3834 0.2500
# 59 texture coords

g Cylinder001
f 1/1/1 2/2/2 3/3/3 
f 1/4/1 3/3/3 4/5/4 
f 1/6/1 4/7/4 5/8/5 
f 1/9/1 5/8/5 6/10/6 
f 1/11/1 6/10/6 2/2/2 
f 2/2/2 7/12/7 8/13/8 
f 3/3/3 8/13/8 9/14/9 
f 4/7/4 9/15/9 10/16/10 
f 5/8/5 10/16/10 11/17/11 
f 6/10/6 11/17/11 7/12/7 
f 8/13/8 3/3/3 2/2/2 
f 9/14/9 4/5/4 3/3/3 
f 10/16/10 5/8/5 4/7/4 
f 11/17/11 6/10/6 5/8/5 
f 7/12/7 2/2/2 6/10/6 
f 12/18/12 13/19/13 14/20/14 15/21/15 
f 13/19/13 16/22/16 17/23/17 14/20/14 
f 16/22/16 18/24/18 19/25/19 17/23/17 
f 18/26/18 20/27/20 21/28/21 19/29/19 
f 20/27/20 22/30/22 23/31/23 21/28/21 
f 22/30/22 24/32/24 25/33/25 23/31/23 
f 24/32/24 26/34/26 27/35/27 25/33/25 
f 26/34/26 28/36/28 29/37/29 27/35/27 
f 28/36/28 30/38/30 31/39/31 29/37/29 
f 30/38/30 12/18/12 15/21/15 31/39/31 
f 28/40/28 26/41/26 24/42/24 12/43/12 
f 20/44/20 12/43/12 24/42/24 22/45/22 
f 16/46/16 12/43/12 20/44/20 18/47/18 
f 16/46/16 13/48/13 12/43/12 
f 30/49/30 28/40/28 12/43/12 
f 14/50/14 17/51/17 19/52/19 31/53/31 
f 23/54/23 31/53/31 19/52/19 21/55/21 
f 27/56/27 31/53/31 23/54/23 25/57/25 
f 27/56/27 29/58/29 31/53/31 
f 15/59/15 14/50/14 31/53/31 
# 16 polygons - 19 triangles

