# 3ds Max Wavefront OBJ Exporter v0.97b - (c)2007 guruware
# File Created: 24.05.2018 10:29:36

#
# object Box001
#

v  -0.0551 0.2533 -0.0711
v  -0.0545 0.2637 -0.0930
v  -0.0694 0.1926 -0.0469
v  -0.0406 0.1785 -0.0229
v  -0.0346 0.2214 -0.0380
v  0.0000 0.1760 -0.0131
v  -0.0000 0.2212 -0.0380
v  -0.0369 0.3027 -0.1059
v  -0.0000 0.3146 -0.1113
v  0.0000 0.2252 -0.1672
v  -0.0513 0.2219 -0.1559
v  -0.0795 0.2011 -0.1237
v  -0.0777 0.1581 -0.0492
v  -0.0000 0.1458 -0.0104
v  -0.0396 0.1459 -0.0215
v  -0.0000 0.1624 -0.1837
v  -0.0509 0.1565 -0.1676
v  -0.0800 0.1338 -0.1251
v  -0.0807 0.1131 -0.0608
v  -0.0436 0.1019 -0.0240
v  0.0000 0.0993 -0.0170
v  -0.0448 0.1264 0.0108
v  -0.0474 0.1155 -0.0035
v  -0.0634 0.1159 -0.0030
v  -0.0633 0.1272 0.0108
v  -0.0579 0.0625 -0.1240
v  -0.0393 0.0625 -0.1573
v  0.0000 0.0625 -0.1666
v  -0.0622 0.0625 -0.0815
v  -0.0357 0.0625 -0.0469
v  0.0000 0.0625 -0.0394
v  0.0406 0.1785 -0.0229
v  0.0694 0.1926 -0.0469
v  0.0551 0.2533 -0.0711
v  0.0346 0.2214 -0.0380
v  0.0369 0.3027 -0.1059
v  0.0513 0.2219 -0.1559
v  0.0545 0.2637 -0.0930
v  0.0795 0.2011 -0.1237
v  0.0777 0.1581 -0.0492
v  0.0396 0.1459 -0.0215
v  0.0509 0.1565 -0.1676
v  0.0800 0.1338 -0.1251
v  0.0807 0.1131 -0.0608
v  0.0436 0.1019 -0.0240
v  0.0448 0.1264 0.0108
v  0.0474 0.1155 -0.0035
v  0.0634 0.1159 -0.0030
v  0.0633 0.1272 0.0108
v  0.0579 0.0625 -0.1240
v  0.0393 0.0625 -0.1573
v  0.0622 0.0625 -0.0815
v  0.0357 0.0625 -0.0469
# 53 vertices

vn -0.9076 0.3147 0.2778
vn -0.9190 0.3673 -0.1432
vn -0.8004 0.3579 0.4809
vn -0.1690 0.4039 0.8990
vn -0.3558 0.4104 0.8396
vn -0.0000 0.2317 0.9728
vn 0.0000 0.4185 0.9082
vn -0.4693 0.5283 -0.7076
vn 0.0000 0.5434 -0.8394
vn 0.0000 0.3825 -0.9240
vn -0.5935 0.3435 -0.7278
vn -0.9515 0.1999 -0.2340
vn -0.9722 -0.0040 0.2342
vn -0.0000 -0.0151 0.9999
vn 0.2847 -0.4020 0.8702
vn -0.0000 0.0414 -0.9991
vn -0.5673 -0.0090 -0.8235
vn -0.9441 -0.1080 -0.3113
vn -0.9163 -0.2168 0.3367
vn -0.4674 -0.3034 0.8303
vn -0.0000 -0.3170 0.9484
vn 0.6173 0.3989 0.6781
vn 0.7326 -0.4976 -0.4644
vn -0.6892 -0.5500 -0.4718
vn -0.6627 0.4118 0.6255
vn -0.8990 -0.2569 -0.3547
vn -0.5566 -0.1866 -0.8096
vn -0.0000 -0.1555 -0.9878
vn -0.8978 -0.3982 0.1880
vn -0.4716 -0.5146 0.7160
vn 0.0000 -0.5239 0.8518
vn 0.1690 0.4039 0.8990
vn 0.8004 0.3579 0.4809
vn 0.9076 0.3147 0.2778
vn 0.3558 0.4104 0.8396
vn 0.4693 0.5283 -0.7076
vn 0.5935 0.3435 -0.7278
vn 0.9190 0.3673 -0.1432
vn 0.9515 0.1999 -0.2340
vn 0.9722 -0.0040 0.2342
vn -0.2847 -0.4020 0.8702
vn 0.5673 -0.0090 -0.8235
vn 0.9441 -0.1080 -0.3113
vn 0.9163 -0.2168 0.3367
vn 0.4674 -0.3034 0.8303
vn -0.6173 0.3989 0.6781
vn -0.7326 -0.4976 -0.4644
vn 0.6892 -0.5500 -0.4718
vn 0.6627 0.4118 0.6255
vn 0.8990 -0.2569 -0.3547
vn 0.5566 -0.1866 -0.8096
vn 0.8978 -0.3982 0.1880
vn 0.4716 -0.5146 0.7160
vn -0.0169 -0.7856 0.6186
vn 0.0169 -0.7856 0.6186
# 55 vertex normals

vt 0.5625 0.2500 0.0000
vt 0.2500 0.5000 0.0000
vt 0.1875 0.2500 0.0000
vt 0.0000 1.0000 0.0000
vt 0.5000 1.0000 0.0000
vt 0.5000 0.8174 0.0000
vt 0.2500 1.0000 0.0000
vt 0.1875 1.0000 0.0000
vt 0.1875 0.5000 0.0000
vt 0.1406 0.2500 0.0000
vt 0.0938 1.0000 0.0000
vt 0.0938 0.5344 0.0000
vt 0.0703 0.2500 0.0000
vt 0.0937 0.5000 0.0000
vt 0.1250 0.5000 0.0000
vt 0.0000 0.7751 0.0000
vt 0.0000 0.3750 0.0000
# 17 texture coords

g Box001
f 1/1/1 2/2/2 3/3/3 
f 4/4/4 5/4/5 1/1/1 3/3/3 
f 6/5/6 7/6/7 5/4/5 4/4/4 
f 8/7/8 9/5/9 10/5/10 11/8/11 
f 2/2/2 8/7/8 11/8/11 12/9/12 
f 3/3/3 2/2/2 12/9/12 13/10/13 
f 14/5/14 6/5/6 4/4/4 15/4/15 
f 11/8/11 10/5/10 16/5/16 17/11/17 
f 12/9/12 11/8/11 17/11/17 18/12/18 
f 13/10/13 12/9/12 18/12/18 19/13/19 
f 15/4/15 13/10/13 19/13/19 20/4/20 
f 21/5/21 14/5/14 15/4/15 20/4/20 
f 15/4/15 4/4/4 22/4/22 23/4/23 
f 13/10/13 15/4/15 23/4/23 24/14/24 
f 13/10/13 24/14/24 25/15/25 3/3/3 
f 3/3/3 25/15/25 22/4/22 4/4/4 
f 26/16/26 18/12/18 17/11/17 27/4/27 
f 17/11/17 16/5/16 28/5/28 27/4/27 
f 29/17/29 19/13/19 18/12/18 26/16/26 
f 20/4/20 19/13/19 29/17/29 30/4/30 
f 21/5/21 20/4/20 30/4/30 31/5/31 
f 32/4/32 33/3/33 34/1/34 35/4/35 
f 6/5/6 32/4/32 35/4/35 7/6/7 
f 36/7/36 37/8/37 10/5/10 9/5/9 
f 38/2/38 39/9/39 37/8/37 36/7/36 
f 33/3/33 40/10/40 39/9/39 38/2/38 
f 14/5/14 41/4/41 32/4/32 6/5/6 
f 37/8/37 42/11/42 16/5/16 10/5/10 
f 39/9/39 43/12/43 42/11/42 37/8/37 
f 40/10/40 44/13/44 43/12/43 39/9/39 
f 41/4/41 45/4/45 44/13/44 40/10/40 
f 21/5/21 45/4/45 41/4/41 14/5/14 
f 46/4/46 32/4/32 41/4/41 47/4/47 
f 47/4/47 41/4/41 40/10/40 48/14/48 
f 40/10/40 33/3/33 49/15/49 48/14/48 
f 33/3/33 32/4/32 46/4/46 49/15/49 
f 50/16/50 51/4/51 42/11/42 43/12/43 
f 42/11/42 51/4/51 28/5/28 16/5/16 
f 43/12/43 44/13/44 52/17/52 50/16/50 
f 45/4/45 53/4/53 52/17/52 44/13/44 
f 21/5/21 31/5/31 53/4/53 45/4/45 
f 34/1/34 33/3/33 38/2/38 
f 25/15/54 24/14/54 23/4/54 22/4/54 
f 47/4/55 48/14/55 49/15/55 46/4/55 
# 42 polygons - 2 triangles

