# 3ds Max Wavefront OBJ Exporter v0.97b - (c)2007 guruware
# File Created: 06.05.2018 18:45:24

#
# object Box003
#

v  -0.0589 -0.0025 0.1229
v  -0.0518 0.0000 -0.1058
v  0.0601 0.0000 -0.1057
v  0.0502 0.0000 0.1232
v  0.0599 0.0000 0.1121
v  -0.0557 0.0750 0.1568
v  0.0623 0.0746 0.1598
v  0.0548 0.0752 -0.0762
v  -0.0446 0.0752 -0.0770
v  0.0506 0.0354 0.1398
v  -0.0600 0.0303 0.1342
v  0.0597 0.0165 -0.1102
v  0.0624 0.0351 0.1234
v  0.0597 0.0351 -0.0854
v  -0.0486 0.0335 -0.0854
v  -0.0497 0.0160 -0.1100
v  0.0597 0.0631 -0.0800
v  -0.0587 0.0607 0.1410
v  0.0449 0.0046 -0.1194
# 19 vertices

vn 0.0067 -1.0000 -0.0034
vn 0.0010 1.0000 0.0013
vn -0.0100 -0.5003 0.8658
vn 0.9992 -0.0402 -0.0069
vn -0.0082 0.8832 -0.4689
vn -0.9953 0.0858 -0.0457
vn 0.6864 -0.3880 0.6150
vn 0.8358 0.5482 -0.0289
vn -0.0194 -0.5768 0.8167
vn -0.9231 0.3814 -0.0497
vn 0.9998 0.0137 -0.0136
vn -0.0025 0.2628 -0.9648
vn 0.5918 -0.6376 0.4932
vn 0.0065 0.2745 -0.9616
vn 0.0281 0.8924 -0.4504
vn -0.9937 0.0881 -0.0687
vn -0.0344 -0.2986 0.9538
vn -0.1145 -0.8251 0.5533
vn -0.9843 0.1675 -0.0560
vn 0.5662 -0.2756 -0.7769
vn -0.0520 -0.7947 -0.6048
vn -0.0266 0.3922 -0.9195
vn -0.0502 0.7784 -0.6258
# 23 vertex normals

vt 0.9461 0.9209 0.0000
vt 0.8908 0.9192 0.0000
vt 0.8908 0.8937 0.0000
vt 0.9462 0.8960 0.0000
vt 0.9435 0.8938 0.0000
vt 0.8882 0.9532 0.0000
vt 0.8875 0.9262 0.0000
vt 0.9446 0.9279 0.0000
vt 0.9448 0.9506 0.0000
vt 0.9555 0.9041 0.0000
vt 0.9556 0.8991 0.0000
vt 0.9858 0.9008 0.0000
vt 0.9853 0.9055 0.0000
vt 0.9435 0.9844 0.0000
vt 0.8908 0.9844 0.0000
vt 0.8897 0.9820 0.0000
vt 0.9462 0.9794 0.0000
vt 0.8957 0.9794 0.0000
vt 0.9512 0.9281 0.0000
vt 0.9809 0.9331 0.0000
vt 0.9512 0.9331 0.0000
vt 0.8957 0.9702 0.0000
vt 0.8930 0.9656 0.0000
vt 0.9461 0.9651 0.0000
vt 0.9510 0.9699 0.0000
vt 0.9520 0.9676 0.0000
vt 0.9462 0.9844 0.0000
vt 0.9502 0.9793 0.0000
vt 0.9550 0.9743 0.0000
vt 0.8971 0.9754 0.0000
vt 0.8980 0.9743 0.0000
vt 0.9850 0.8937 0.0000
vt 0.9526 0.8940 0.0000
vt 0.9440 0.9598 0.0000
vt 0.8913 0.9612 0.0000
vt 0.8875 0.9585 0.0000
vt 0.9569 0.9639 0.0000
vt 0.9865 0.9596 0.0000
vt 0.9865 0.9636 0.0000
vt 0.9580 0.9585 0.0000
vt 0.9852 0.9585 0.0000
vt 0.9553 0.9262 0.0000
vt 0.9812 0.9281 0.0000
vt 0.9857 0.8964 0.0000
vt 0.8875 0.9837 0.0000
vt 0.8898 0.9188 0.0000
vt 0.8875 0.8972 0.0000
vt 0.9599 0.9763 0.0000
vt 0.9637 0.9743 0.0000
vt 0.9897 0.9759 0.0000
# 50 texture coords

g Box003
f 1/1/1 2/2/1 3/3/1 4/4/1 
f 3/3/1 5/5/1 4/4/1 
f 6/6/2 7/7/2 8/8/2 9/9/2 
f 4/10/3 10/11/3 11/12/3 1/13/3 
f 5/14/4 3/15/4 12/16/4 13/17/4 
f 12/16/4 14/18/4 13/17/4 
f 12/19/5 15/20/5 14/21/5 
f 1/22/6 11/23/6 15/24/6 2/25/6 
f 16/26/6 2/25/6 15/24/6 
f 4/27/7 5/14/7 13/17/7 10/28/7 
f 7/29/8 17/30/8 8/31/8 
f 6/32/9 10/11/9 7/33/9 
f 9/34/10 18/35/10 6/36/10 
f 17/30/11 7/29/11 13/17/11 14/18/11 
f 15/37/12 17/38/12 14/39/12 
f 13/17/13 7/29/13 10/28/13 
f 15/37/14 9/40/14 8/41/14 
f 19/42/15 16/43/15 15/20/15 
f 18/35/16 9/34/16 11/23/16 
f 18/44/17 11/12/17 10/11/17 
f 6/32/18 18/44/18 10/11/18 
f 9/34/19 15/24/19 11/23/19 
f 19/45/20 12/16/20 3/15/20 
f 2/2/21 16/46/21 19/47/21 3/3/21 
f 15/37/22 8/41/22 17/38/22 
f 12/48/23 19/49/23 15/50/23 
# 8 polygons - 18 triangles

