# 3ds Max Wavefront OBJ Exporter v0.97b - (c)2007 guruware
# File Created: 06.05.2018 18:43:21

#
# object Object001
#

v  0.0010 0.8750 -0.3717
v  -0.0455 0.8750 -0.3796
v  -0.3201 0.8750 -0.0448
v  -0.3152 0.8750 0.0188
v  0.2887 0.8750 -0.0422
v  -0.0040 0.8750 -0.4187
v  0.2741 0.8750 -0.0062
v  0.0215 0.8750 0.3212
v  0.3082 0.8750 -0.0013
v  -0.0462 0.8750 0.3466
v  -0.0063 0.8750 0.3672
# 11 vertices

vn 0.0000 1.0000 -0.0000
# 1 vertex normals

vt 0.0651 1.0791 0.0000
vt 0.0915 0.9531 0.0000
vt 0.9030 0.9531 0.0000
vt 0.9768 1.0738 0.0000
vt 0.0878 0.9604 0.0000
vt 0.9592 0.9712 0.0000
vt 0.8724 1.0385 0.0000
vt 0.0834 1.0362 0.0000
vt 0.1947 1.0275 0.0000
vt 0.9559 0.9869 0.0000
vt 0.9366 1.0169 0.0000
vt 0.1320 1.0727 0.0000
vt 0.0470 0.9008 0.0000
vt 0.1469 0.9837 0.0000
vt 0.0000 1.0018 0.0000
vt 0.0066 1.0113 0.0000
vt 0.9535 0.1056 0.0000
vt 0.9757 0.8231 0.0000
vt 0.8905 0.9438 0.0000
vt 0.0651 0.1056 0.0000
vt 0.0651 0.9236 0.0000
# 21 texture coords

g Object001
f 1/1/1 2/2/1 3/3/1 4/4/1 
f 5/5/1 6/6/1 1/7/1 7/8/1 
f 8/9/1 9/10/1 7/11/1 
f 8/12/1 10/13/1 11/14/1 
f 1/1/1 6/15/1 2/2/1 
f 7/8/1 9/16/1 5/5/1 
f 4/17/1 10/18/1 8/19/1 1/20/1 
f 1/20/1 8/19/1 7/21/1 
# 3 polygons - 5 triangles

