# 3ds Max Wavefront OBJ Exporter v0.97b - (c)2007 guruware
# File Created: 06.05.2018 18:44:14

#
# object Box002
#

v  -0.0456 0.0000 -0.3796
v  -0.3618 0.0000 -0.0298
v  -0.3261 0.4692 -0.0551
v  -0.0592 0.4692 -0.3460
v  -0.3396 0.0000 0.0487
v  -0.0426 0.0000 0.4255
v  -0.0014 0.4799 0.3932
v  -0.3115 0.4896 0.0179
v  0.3631 0.0010 0.0008
v  0.3505 0.4806 0.0200
v  0.0652 0.0010 0.4046
v  0.0887 0.0010 -0.4080
v  0.0009 0.4778 -0.3750
v  0.3489 0.0010 -0.0497
v  0.0009 0.8750 -0.3717
v  -0.0456 0.8750 -0.3796
v  -0.3202 0.8750 -0.0448
v  -0.3153 0.8750 0.0188
v  0.2886 0.8750 -0.0422
v  -0.0041 0.8750 -0.4187
v  0.2740 0.8750 -0.0062
v  0.0046 0.0000 0.3862
v  0.0214 0.8750 0.3212
v  0.3081 0.8750 -0.0013
v  -0.0064 0.8750 0.3672
v  -0.0463 0.8750 0.3466
v  0.3073 0.4880 0.0399
v  0.0110 0.0000 -0.3694
# 28 vertices

vn -0.7394 0.0234 -0.6728
vn -0.7739 0.0960 0.6260
vn 0.7658 0.0581 0.6405
vn 0.7697 0.1363 -0.6237
vn 0.0000 1.0000 -0.0000
vn -0.5505 -0.0742 -0.8315
vn 0.9617 0.0362 -0.2715
vn 0.6388 -0.0031 0.7694
vn -0.9713 0.0777 0.2247
vn -0.7562 -0.0007 -0.6543
vn -0.7598 -0.0079 0.6501
vn 0.7546 0.0713 0.6523
vn 0.7956 -0.0725 -0.6014
vn -0.1605 0.0252 -0.9867
vn 0.9016 -0.0476 -0.4299
vn -0.9901 0.0007 0.1406
vn -0.4445 -0.0199 -0.8955
vn 0.1172 0.9869 -0.1109
vn 0.2800 0.9225 0.2657
vn -0.2893 -0.0175 0.9571
# 20 vertex normals

vt 0.9448 0.9364 0.0000
vt 0.9219 0.9364 0.0000
vt 0.9235 0.9127 0.0000
vt 0.9426 0.9127 0.0000
vt 0.9168 0.9364 0.0000
vt 0.8921 0.9364 0.0000
vt 0.8942 0.9121 0.0000
vt 0.9188 0.9116 0.0000
vt 0.9235 0.9615 0.0000
vt 0.8921 0.9605 0.0000
vt 0.8922 0.9416 0.0000
vt 0.9235 0.9410 0.0000
vt 0.9235 0.9822 0.0000
vt 0.8923 0.9805 0.0000
vt 0.9235 0.9640 0.0000
vt 0.9524 0.8941 0.0000
vt 0.9544 0.8923 0.0000
vt 0.9822 0.8965 0.0000
vt 0.9846 0.8992 0.0000
vt 0.9516 0.9163 0.0000
vt 0.9507 0.8921 0.0000
vt 0.9538 0.9172 0.0000
vt 0.9340 0.9855 0.0000
vt 0.9312 0.9855 0.0000
vt 0.9319 0.9653 0.0000
vt 0.9359 0.9650 0.0000
vt 0.9491 0.9580 0.0000
vt 0.9472 0.9579 0.0000
vt 0.9476 0.9336 0.0000
vt 0.9798 0.9215 0.0000
vt 0.9523 0.9185 0.0000
vt 0.9229 0.8921 0.0000
vt 0.9448 0.8921 0.0000
vt 0.8959 0.8921 0.0000
vt 0.8973 0.8921 0.0000
vt 0.9187 0.8921 0.0000
vt 0.9758 0.9799 0.0000
vt 0.9505 0.9815 0.0000
vt 0.9504 0.9596 0.0000
vt 0.9505 0.9570 0.0000
vt 0.9764 0.9561 0.0000
vt 0.9777 0.9511 0.0000
vt 0.9516 0.9523 0.0000
vt 0.9528 0.9281 0.0000
vt 0.9784 0.9250 0.0000
vt 0.9325 0.9411 0.0000
vt 0.9362 0.9412 0.0000
vt 0.9774 0.9227 0.0000
vt 0.9847 0.9207 0.0000
vt 0.9835 0.9228 0.0000
vt 0.9274 0.9410 0.0000
vt 0.9402 0.9437 0.0000
vt 0.9462 0.9793 0.0000
vt 0.9402 0.9620 0.0000
vt 0.9402 0.9796 0.0000
vt 0.9433 0.9579 0.0000
# 56 texture coords

g Box002
f 1/1/1 2/2/1 3/3/1 4/4/1 
f 5/5/2 6/6/2 7/7/2 8/8/2 
f 9/9/3 10/10/3 7/11/3 11/12/3 
f 12/13/4 13/14/4 10/10/4 14/15/4 
f 15/16/5 16/17/5 17/18/5 18/19/5 
f 19/20/5 20/21/5 15/16/5 21/22/5 
f 16/23/6 20/24/6 13/25/6 4/26/6 
f 9/9/7 14/15/7 10/10/7 
f 6/27/8 22/28/8 7/29/8 
f 5/5/9 8/8/9 3/3/9 2/2/9 
f 23/30/5 24/31/5 21/22/5 
f 17/32/10 16/33/10 4/4/10 3/3/10 
f 7/7/11 25/34/11 26/35/11 8/8/11 
f 26/35/11 18/36/11 8/8/11 
f 27/37/12 24/38/12 23/39/12 25/40/12 
f 27/37/12 25/40/12 7/41/12 
f 13/42/13 20/43/13 19/44/13 27/45/13 
f 28/46/14 1/47/14 4/26/14 13/25/14 
f 27/45/15 19/44/15 24/48/15 
f 8/8/16 18/36/16 17/32/16 3/3/16 
f 23/30/5 26/49/5 25/50/5 
f 28/46/17 13/25/17 12/51/17 
f 13/52/18 27/53/18 10/54/18 
f 27/53/19 7/55/19 10/54/19 
f 7/29/20 22/28/20 11/56/20 
f 15/16/5 20/21/5 16/17/5 
f 21/22/5 24/31/5 19/20/5 
f 18/19/5 26/49/5 23/30/5 15/16/5 
f 15/16/5 23/30/5 21/22/5 
# 15 polygons - 14 triangles

