# 3ds Max Wavefront OBJ Exporter v0.97b - (c)2007 guruware
# File Created: 06.05.2018 18:46:07

#
# object GeoSphere003
#

v  0.0419 0.0375 -0.0034
v  -0.0033 0.0375 -0.0546
v  0.0003 0.0375 0.0675
v  0.0511 0.0189 -0.0049
v  0.0234 0.0375 -0.0752
v  -0.0289 0.0375 -0.0793
v  0.0492 -0.0036 -0.0044
v  0.0385 -0.0112 -0.0512
v  0.0056 -0.0112 -0.0802
v  -0.0301 -0.0035 -0.0792
v  -0.0448 0.0375 -0.0407
v  -0.0396 0.0375 0.0618
v  -0.0485 -0.0112 -0.0324
v  -0.0484 -0.0114 0.0256
v  -0.0299 -0.0039 0.0718
v  0.0056 0.0201 0.0737
v  0.0058 -0.0115 0.0727
v  0.0386 -0.0113 0.0436
v  0.0113 -0.0169 -0.0033
# 19 vertices

vn 0.0000 1.0000 -0.0000
vn 0.8671 0.4451 -0.2236
vn 0.9744 -0.0867 -0.2075
vn 0.9341 0.1250 -0.3345
vn 0.6517 -0.1628 -0.7408
vn 0.0780 0.0722 -0.9943
vn -0.0262 -0.0016 -0.9997
vn -0.9319 0.0257 -0.3619
vn -0.9248 0.0051 -0.3803
vn -0.9971 0.0756 0.0012
vn -0.9886 0.1417 0.0503
vn -0.9150 -0.1195 0.3854
vn -0.1366 0.2964 0.9453
vn 0.7880 0.4054 0.4633
vn 0.8101 0.3593 0.4633
vn 0.0274 0.2427 0.9697
vn -0.2684 -0.0327 0.9628
vn 0.6628 -0.0196 0.7485
vn 0.7952 0.4019 0.4540
vn 0.9763 -0.0768 0.2024
vn 0.5843 -0.8115 -0.0015
vn 0.0711 -0.9946 0.0758
vn 0.2005 -0.9797 -0.0013
vn 0.0684 -0.9946 -0.0783
vn -0.2074 -0.9493 0.2364
vn -0.0597 -0.9960 0.0664
vn -0.0931 -0.9957 -0.0024
vn -0.0607 -0.9958 -0.0689
vn -0.2095 -0.9485 -0.2374
# 29 vertex normals

vt 0.9298 0.9244 0.0000
vt 0.9568 0.9380 0.0000
vt 0.8945 0.9383 0.0000
vt 0.9336 0.9568 0.0000
vt 0.9329 0.9604 0.0000
vt 0.8970 0.9574 0.0000
vt 0.9668 0.9294 0.0000
vt 0.9699 0.9458 0.0000
vt 0.9331 0.9674 0.0000
vt 0.9092 0.9698 0.0000
vt 0.8945 0.9698 0.0000
vt 0.9675 0.9177 0.0000
vt 0.9811 0.9244 0.0000
vt 0.9725 0.9439 0.0000
vt 0.9813 0.9429 0.0000
vt 0.9505 0.9512 0.0000
vt 0.8982 0.9507 0.0000
vt 0.9716 0.9739 0.0000
vt 0.9716 0.9827 0.0000
vt 0.9477 0.9851 0.0000
vt 0.9519 0.9741 0.0000
vt 0.9181 0.9852 0.0000
vt 0.8996 0.9738 0.0000
vt 0.8945 0.9828 0.0000
vt 0.8963 0.9166 0.0000
vt 0.9165 0.9209 0.0000
vt 0.8938 0.9200 0.0000
vt 0.9698 0.9563 0.0000
vt 0.9730 0.9600 0.0000
vt 0.9120 0.9296 0.0000
vt 0.8941 0.9301 0.0000
vt 0.9725 0.9699 0.0000
vt 0.9576 0.9699 0.0000
vt 0.9576 0.8920 0.0000
vt 0.9725 0.9023 0.0000
vt 0.9337 0.9006 0.0000
vt 0.9092 0.8920 0.0000
vt 0.8945 0.9023 0.0000
vt 0.9720 0.9135 0.0000
vt 0.9484 0.9193 0.0000
vt 0.9188 0.9193 0.0000
vt 0.8949 0.9135 0.0000
# 42 texture coords

g GeoSphere003
f 1/1/1 2/2/1 3/3/1 
f 1/4/2 4/5/2 5/6/2 
f 1/1/1 5/7/1 2/2/1 
f 2/2/1 5/7/1 6/8/1 
f 4/5/3 7/9/3 8/10/3 
f 4/5/4 8/10/4 5/6/4 
f 5/6/5 8/10/5 9/11/5 
f 5/12/6 9/13/6 6/14/6 
f 6/14/7 9/13/7 10/15/7 
f 2/2/1 6/8/1 11/16/1 
f 2/2/1 11/16/1 3/3/1 
f 3/3/1 11/16/1 12/17/1 
f 6/18/8 10/19/8 13/20/8 
f 6/18/9 13/20/9 11/21/9 
f 11/21/10 13/20/10 14/22/10 
f 11/21/11 14/22/11 12/23/11 
f 12/23/12 14/22/12 15/24/12 
f 3/25/13 12/26/13 16/27/13 
f 3/28/14 16/29/14 1/4/14 
f 1/4/15 16/29/15 4/5/15 
f 12/26/16 15/30/16 17/31/16 
f 12/26/17 17/31/17 16/27/17 
f 16/29/18 17/32/18 18/33/18 
f 16/29/19 18/33/19 4/5/19 
f 4/5/20 18/33/20 7/9/20 
f 7/9/21 18/33/21 8/10/21 
f 18/34/22 17/35/22 19/36/22 
f 18/34/23 19/36/23 8/37/23 
f 8/37/24 19/36/24 9/38/24 
f 17/35/25 15/39/25 14/40/25 
f 17/35/26 14/40/26 19/36/26 
f 19/36/27 14/40/27 13/41/27 
f 19/36/28 13/41/28 9/38/28 
f 9/38/29 13/41/29 10/42/29 
# 0 polygons - 34 triangles

