# 3ds Max Wavefront OBJ Exporter v0.97b - (c)2007 guruware
# File Created: 19.02.2018 12:37:50

#
# object Box001
#

v  -59.3039 0.0000 10.7805
v  -59.3039 0.0000 -10.7805
v  59.3039 0.0000 -10.7805
v  59.3039 0.0000 10.7805
v  -59.3039 3.0113 10.7805
v  59.3039 3.0113 10.7805
v  59.3039 3.0113 -10.7805
v  -59.3039 3.0113 -10.7805
v  -59.3039 0.0000 14.0942
v  59.3039 0.0000 14.0942
v  59.3039 3.0113 14.0942
v  -59.3039 3.0113 14.0942
v  59.3039 0.0000 -14.3151
v  -59.3039 0.0000 -14.3151
v  -59.3039 3.0113 -14.3151
v  59.3039 3.0113 -14.3151
v  -59.3039 26.9673 -10.7805
v  59.3039 26.9673 -10.7805
v  59.3039 26.9673 -14.3151
v  -59.3039 26.9673 -14.3151
v  59.3039 26.9673 10.7805
v  -59.3039 26.9673 10.7805
v  -59.3039 26.9673 14.0942
v  59.3039 26.9673 14.0942
# 24 vertices

vn 0.0000 -1.0000 -0.0000
vn 0.0000 1.0000 -0.0000
vn 0.0000 0.0000 1.0000
vn 1.0000 0.0000 -0.0000
vn 0.0000 0.0000 -1.0000
vn -1.0000 0.0000 -0.0000
# 6 vertex normals

vt 1.0000 0.0000 0.0000
vt 1.0000 1.0000 0.0000
vt 0.0000 1.0000 0.0000
vt 0.0000 0.0000 0.0000
# 4 texture coords

g Box001
f 1/1/1 2/2/1 3/3/1 4/4/1 
f 5/4/2 6/1/2 7/2/2 8/3/2 
f 9/4/3 10/1/3 11/2/3 12/3/3 
f 4/4/4 3/1/4 7/2/4 6/3/4 
f 13/4/5 14/1/5 15/2/5 16/3/5 
f 2/4/6 1/1/6 5/2/6 8/3/6 
f 3/3/1 2/2/1 14/1/1 13/4/1 
f 2/4/6 8/3/6 15/2/6 14/1/6 
f 17/3/2 18/2/2 19/3/2 20/2/2 
f 7/2/4 3/1/4 13/4/4 16/3/4 
f 1/1/1 4/4/1 10/1/1 9/4/1 
f 4/4/4 6/3/4 11/2/4 10/1/4 
f 21/1/2 22/4/2 23/3/2 24/2/2 
f 5/2/6 1/1/6 9/4/6 12/3/6 
f 8/3/3 7/2/3 18/2/3 17/3/3 
f 7/2/4 16/3/4 19/3/4 18/2/4 
f 16/3/5 15/2/5 20/2/5 19/3/5 
f 15/2/6 8/3/6 17/3/6 20/2/6 
f 6/1/5 5/4/5 22/4/5 21/1/5 
f 5/2/6 12/3/6 23/3/6 22/4/6 
f 12/3/3 11/2/3 24/2/3 23/3/3 
f 11/2/4 6/3/4 21/1/4 24/2/4 
# 22 polygons

