# 3ds Max Wavefront OBJ Exporter v0.97b - (c)2007 guruware
# File Created: 26.05.2018 15:43:20

#
# object Plane001
#

v  -0.0848 0.4530 0.1532
v  -0.0408 0.4540 0.1735
v  -0.0329 0.4712 0.1781
v  -0.0996 0.4745 0.1590
v  0.0408 0.4540 0.1735
v  0.0848 0.4530 0.1532
v  0.0996 0.4745 0.1590
v  0.0329 0.4712 0.1781
v  -0.1425 0.5009 0.0892
v  -0.0996 0.4840 0.1615
v  -0.1425 0.5147 0.0929
v  -0.0329 0.4773 0.1798
v  0.0000 0.4730 0.1850
v  0.0000 0.4793 0.1844
v  0.0329 0.4773 0.1798
v  0.0996 0.4840 0.1615
v  0.1425 0.5009 0.0892
v  0.1425 0.5147 0.0929
v  -0.0408 0.4985 0.1854
v  -0.0889 0.5036 0.1667
v  0.0889 0.5036 0.1667
v  0.0408 0.4985 0.1854
# 22 vertices

vn -0.2826 -0.3726 0.8839
vn -0.4045 -0.0498 0.9132
vn -0.2458 -0.2191 0.9442
vn -0.5183 -0.2678 0.8122
vn 0.2870 -0.1895 0.9390
vn 0.3502 -0.4684 0.8111
vn 0.5348 -0.2566 0.8050
vn 0.2374 -0.2186 0.9465
vn -0.8572 -0.1333 0.4974
vn -0.5503 -0.1874 0.8137
vn -0.2128 -0.2793 0.9363
vn -0.0281 0.0678 0.9973
vn -0.0265 0.0671 0.9974
vn 0.2522 -0.2529 0.9341
vn 0.5345 -0.1803 0.8257
vn 0.8572 -0.1333 0.4974
vn -0.2853 -0.2994 0.9105
vn -0.3543 -0.0484 0.9339
vn 0.2804 -0.1526 0.9477
vn 0.3579 -0.3691 0.8577
# 20 vertex normals

vt 0.0344 0.8916 0.0000
vt 0.0491 0.8916 0.0000
vt 0.0491 0.9210 0.0000
vt 0.0344 0.9210 0.0000
vt 0.0785 0.8916 0.0000
vt 0.0932 0.8916 0.0000
vt 0.0932 0.9210 0.0000
vt 0.0785 0.9210 0.0000
vt 0.0197 0.9210 0.0000
vt 0.0344 0.9505 0.0000
vt 0.0197 0.9505 0.0000
vt 0.0491 0.9505 0.0000
vt 0.0638 0.9210 0.0000
vt 0.0638 0.9505 0.0000
vt 0.0785 0.9505 0.0000
vt 0.0932 0.9505 0.0000
vt 0.1079 0.9210 0.0000
vt 0.1079 0.9505 0.0000
vt 0.0491 0.9799 0.0000
vt 0.0344 0.9799 0.0000
vt 0.0932 0.9799 0.0000
vt 0.0785 0.9799 0.0000
# 22 texture coords

g Plane001
f 1/1/1 2/2/2 3/3/3 4/4/4 
f 5/5/5 6/6/6 7/7/7 8/8/8 
f 9/9/9 4/4/4 10/10/10 11/11/9 
f 4/4/4 3/3/3 12/12/11 10/10/10 
f 3/3/3 13/13/12 14/14/13 12/12/11 
f 13/13/12 8/8/8 15/15/14 14/14/13 
f 8/8/8 7/7/7 16/16/15 15/15/14 
f 7/7/7 17/17/16 18/18/16 16/16/15 
f 10/10/10 12/12/11 19/19/17 20/20/18 
f 15/15/14 16/16/15 21/21/19 22/22/20 
# 10 polygons

