# 3ds Max Wavefront OBJ Exporter v0.97b - (c)2007 guruware
# File Created: 04.02.2018 10:17:08

#
# object Box003
#

v  1.0855 -0.0395 0.0601
v  0.2573 -0.0393 -1.0775
v  0.9491 8.0600 -0.8386
v  1.4536 8.0661 -0.1463
v  -1.0900 -0.0632 -0.6374
v  0.1275 8.0180 -0.5702
v  -1.0944 -0.0782 0.7723
v  0.1241 7.9982 0.2880
v  0.2501 -0.0636 1.2034
v  0.9437 8.0279 0.5500
v  1.1642 14.0444 0.3872
v  -0.2105 13.1195 3.3881
v  4.1070 13.2155 0.1197
v  1.7908 8.8300 5.0954
v  6.8309 8.3776 3.2213
v  7.2666 8.3086 -0.6826
v  -0.0347 13.4097 -3.1840
v  5.9738 8.6113 -4.4370
v  0.5362 8.5059 -4.9252
v  -3.7355 14.2402 0.6548
v  -4.6715 8.4697 -3.9061
v  -4.5904 9.4731 1.5767
v  -3.8998 9.2765 4.6050
v  2.8689 4.0500 -0.4195
v  5.7551 6.2757 -0.5633
v  2.2260 5.8899 3.2071
v  1.4440 5.0946 -4.4098
v  -3.3081 5.2830 -0.1143
# 28 vertices

vn 0.8086 -0.0230 -0.5879
vn -0.3078 0.0778 -0.9483
vn -0.9881 0.1538 -0.0015
vn -0.3055 0.1012 0.9468
vn 0.8086 -0.0085 0.5884
vn 0.2567 0.9160 0.3082
vn 0.3374 0.5768 0.7439
vn 0.4188 0.7389 0.5278
vn 0.7707 0.6341 0.0637
vn 0.2180 0.9534 -0.2086
vn 0.7234 0.6563 -0.2143
vn 0.4079 0.7902 -0.4573
vn 0.0888 0.4383 -0.8944
vn 0.0528 0.9859 -0.1587
vn -0.1644 0.3958 -0.9035
vn -0.4541 0.6751 -0.5814
vn -0.9825 0.1855 -0.0180
vn 0.0728 0.9688 0.2370
vn -0.9447 0.2350 0.2285
vn -0.3285 0.6754 0.6603
vn -0.0416 0.4171 0.9079
vn 0.4706 -0.7810 0.4105
vn 0.7262 -0.6799 0.1020
vn 0.3492 -0.8898 0.2936
vn 0.2246 -0.5928 0.7734
vn 0.4658 -0.8194 -0.3341
vn 0.0894 -0.1375 -0.9865
vn 0.4773 -0.8062 -0.3496
vn 0.6908 -0.6673 -0.2786
vn -0.1869 -0.9744 -0.1252
vn -0.9035 -0.4217 0.0765
vn -0.4095 -0.8280 -0.3831
vn -0.1915 -0.2377 -0.9523
vn -0.1535 -0.9235 0.3516
vn -0.1236 -0.6505 0.7494
vn -0.2567 -0.8206 0.5106
vn -0.8678 -0.4624 0.1818
# 37 vertex normals

vt 0.5723 0.6375 1.0000
vt 0.5918 0.6375 1.0000
vt 0.5918 0.7376 1.0000
vt 0.5723 0.7376 1.0000
vt 0.6113 0.6375 1.0000
vt 0.6113 0.7376 1.0000
vt 0.5139 0.6375 1.0000
vt 0.5334 0.6375 1.0000
vt 0.5334 0.7376 1.0000
vt 0.5139 0.7376 1.0000
vt 0.5528 0.6375 1.0000
vt 0.5528 0.7376 1.0000
vt 0.3252 0.9895 6.1704
vt 0.3126 0.9636 6.1704
vt 0.3378 0.9636 6.1704
vt 0.3126 0.9378 6.1704
vt 0.3252 0.9378 6.1704
vt 0.3378 0.9378 6.1704
vt 0.3503 0.9895 6.1704
vt 0.3629 0.9636 6.1704
vt 0.3503 0.9378 6.1704
vt 0.3629 0.9378 6.1704
vt 0.2749 0.9895 6.1704
vt 0.2624 0.9636 6.1704
vt 0.2875 0.9636 6.1704
vt 0.2624 0.9378 6.1704
vt 0.2749 0.9378 6.1704
vt 0.2875 0.9378 6.1704
vt 0.3001 0.9895 6.1704
vt 0.3001 0.9378 6.1704
vt 0.3252 0.8861 6.1704
vt 0.3378 0.9119 6.1704
vt 0.3126 0.9119 6.1704
vt 0.3503 0.8861 6.1704
vt 0.3629 0.9119 6.1704
vt 0.2749 0.8861 6.1704
vt 0.2875 0.9119 6.1704
vt 0.2624 0.9119 6.1704
vt 0.3001 0.8861 6.1704
# 39 texture coords

g Box003
f 1/1/1 2/2/1 3/3/1 4/4/1 
f 2/2/2 5/5/2 6/6/2 3/3/2 
f 5/7/3 7/8/3 8/9/3 6/10/3 
f 7/8/4 9/11/4 10/12/4 8/9/4 
f 9/11/5 1/1/5 4/4/5 10/12/5 
f 11/13/6 12/14/6 13/15/6 
f 12/14/7 14/16/7 15/17/7 
f 12/14/8 15/17/8 13/15/8 
f 13/15/9 15/17/9 16/18/9 
f 11/19/10 13/15/10 17/20/10 
f 13/15/11 16/18/11 18/21/11 
f 13/15/12 18/21/12 17/20/12 
f 17/20/13 18/21/13 19/22/13 
f 11/23/14 17/24/14 20/25/14 
f 17/24/15 19/26/15 21/27/15 
f 17/24/16 21/27/16 20/25/16 
f 20/25/17 21/27/17 22/28/17 
f 11/29/18 20/25/18 12/14/18 
f 20/25/19 22/28/19 23/30/19 
f 20/25/20 23/30/20 12/14/20 
f 12/14/21 23/30/21 14/16/21 
f 24/31/22 25/32/22 26/33/22 
f 25/32/23 16/18/23 15/17/23 
f 25/32/24 15/17/24 26/33/24 
f 26/33/25 15/17/25 14/16/25 
f 24/34/26 27/35/26 25/32/26 
f 27/35/27 19/22/27 18/21/27 
f 27/35/28 18/21/28 25/32/28 
f 25/32/29 18/21/29 16/18/29 
f 24/36/30 28/37/30 27/38/30 
f 28/37/31 22/28/31 21/27/31 
f 28/37/32 21/27/32 27/38/32 
f 27/38/33 21/27/33 19/26/33 
f 24/39/34 26/33/34 28/37/34 
f 26/33/35 14/16/35 23/30/35 
f 26/33/36 23/30/36 28/37/36 
f 28/37/37 23/30/37 22/28/37 
# 5 polygons - 32 triangles

