# 3ds Max Wavefront OBJ Exporter v0.97b - (c)2007 guruware
# File Created: 04.02.2018 14:41:30

#
# object Plane002
#

v  -0.8260 -0.1311 -1.1302
v  -0.3927 -0.1456 -1.1302
v  -0.2262 4.8244 -1.1909
v  -0.5761 4.8389 -1.1909
v  0.5345 -0.1444 -1.1302
v  0.9660 -0.1035 -1.1302
v  0.8156 1.4831 -1.1909
v  0.4675 1.4422 -1.1909
v  1.5768 -0.1255 -1.1302
v  2.0096 -0.1485 -1.1302
v  2.2220 3.8556 -1.1909
v  1.8725 3.8785 -1.1909
v  -1.8378 -0.1399 -1.1302
v  -1.4057 -0.1065 -1.1302
v  -1.6270 2.7520 -1.1909
v  -1.9758 2.7186 -1.1909
# 16 vertices

vn 0.0001 0.0284 0.9997
vn 0.0001 0.0283 0.9997
vn -0.0009 0.0692 0.9983
vn -0.0008 0.0690 0.9983
vn -0.0008 0.0691 0.9983
vn -0.0010 0.0693 0.9983
vn 0.0002 0.0330 0.9996
vn 0.0002 0.0329 0.9996
vn -0.0004 0.0425 0.9994
# 9 vertex normals

vt 0.2701 0.8912 0.0000
vt 0.3162 0.8912 0.0000
vt 0.3162 0.9401 0.0000
vt 0.2701 0.9401 0.0000
vt 0.3178 0.9299 0.0000
vt 0.3439 0.9299 0.0000
vt 0.3439 0.9576 0.0000
vt 0.3178 0.9576 0.0000
vt 0.2701 0.9417 0.0000
vt 0.3115 0.9417 0.0000
vt 0.3115 0.9856 0.0000
vt 0.2701 0.9856 0.0000
vt 0.3178 0.8912 0.0000
vt 0.3528 0.8912 0.0000
vt 0.3528 0.9283 0.0000
vt 0.3178 0.9283 0.0000
# 16 texture coords

g Plane002
f 1/1/1 2/2/1 3/3/2 4/4/2 
f 5/5/3 6/6/4 7/7/5 8/8/6 
f 9/9/7 10/10/7 11/11/7 12/12/8 
f 13/13/9 14/14/9 15/15/9 16/16/9 
# 4 polygons

