# 3ds Max Wavefront OBJ Exporter v0.97b - (c)2007 guruware
# File Created: 14.05.2018 01:09:25

#
# object Object001
#

v  0.5703 0.0000 -0.3820
v  0.5703 1.1319 -0.3820
v  0.4020 1.1319 -0.5532
v  0.4020 0.0000 -0.5532
v  0.2113 1.1319 -0.6504
v  0.2113 0.0000 -0.6504
v  -0.0000 1.1319 -0.6838
v  -0.0000 0.0000 -0.6838
v  -0.2113 1.1319 -0.6504
v  -0.2113 0.0000 -0.6504
v  -0.4020 1.1319 -0.5532
v  -0.4020 0.0000 -0.5532
v  -0.5703 1.1319 -0.3820
v  -0.5703 0.0000 -0.3820
v  0.6885 0.0000 -0.5002
v  0.6885 1.1319 -0.5002
v  0.5002 1.1319 -0.6885
v  0.2630 1.1319 -0.8093
v  -0.0000 1.1319 -0.8510
v  -0.2630 1.1319 -0.8093
v  -0.5002 1.1319 -0.6885
v  -0.6885 1.1319 -0.5002
v  -0.6885 0.0000 -0.5002
# 23 vertices

vn -0.7131 0.0000 0.7010
vn -0.4540 0.0000 0.8910
vn -0.1564 0.0000 0.9877
vn 0.1564 0.0000 0.9877
vn 0.4540 0.0000 0.8910
vn 0.7131 0.0000 0.7010
vn 0.7071 0.0000 0.7071
vn 0.0000 1.0000 -0.0000
vn -0.7071 0.0000 0.7071
# 9 vertex normals

vt 0.9052 0.0182 0.0000
vt 0.9052 0.9133 0.0000
vt 0.7696 0.9133 0.0000
vt 0.7696 0.0182 0.0000
vt 0.6339 0.9133 0.0000
vt 0.6339 0.0182 0.0000
vt 0.4982 0.9133 0.0000
vt 0.4982 0.0182 0.0000
vt 0.3625 0.9133 0.0000
vt 0.3625 0.0182 0.0000
vt 0.2269 0.9133 0.0000
vt 0.2269 0.0182 0.0000
vt 0.0912 0.9133 0.0000
vt 0.0912 0.0182 0.0000
vt 0.9853 0.0182 0.0000
vt 0.9853 0.9133 0.0000
vt 0.9052 0.9846 0.0000
vt 0.7696 0.9846 0.0000
vt 0.6339 0.9846 0.0000
vt 0.4982 0.9846 0.0000
vt 0.3625 0.9846 0.0000
vt 0.2269 0.9846 0.0000
vt 0.0912 0.9846 0.0000
vt 0.0168 0.9133 0.0000
vt 0.0168 0.0182 0.0000
# 25 texture coords

g Object001
f 1/1/1 2/2/1 3/3/1 4/4/1 
f 4/4/2 3/3/2 5/5/2 6/6/2 
f 6/6/3 5/5/3 7/7/3 8/8/3 
f 8/8/4 7/7/4 9/9/4 10/10/4 
f 10/10/5 9/9/5 11/11/5 12/12/5 
f 12/12/6 11/11/6 13/13/6 14/14/6 
f 15/15/7 16/16/7 2/2/7 1/1/7 
f 16/17/8 17/18/8 3/3/8 2/2/8 
f 17/18/8 18/19/8 5/5/8 3/3/8 
f 18/19/8 19/20/8 7/7/8 5/5/8 
f 19/20/8 20/21/8 9/9/8 7/7/8 
f 20/21/8 21/22/8 11/11/8 9/9/8 
f 21/22/8 22/23/8 13/13/8 11/11/8 
f 22/24/9 23/25/9 14/14/9 13/13/9 
# 14 polygons

